<?xml version="1.0" encoding="utf-8"?>
<!-- Generated by Mocodo 4.2.8 -->
<svg width="551" height="345" viewBox="0 0 551 345" xmlns="http://www.w3.org/2000/svg">
<rect x="0" y="0" width="551" height="345" fill="#f7f7f7" stroke="none" stroke-width="0"/>

<!-- Association VALIDE -->
<g>
	<line x1="257" y1="109" x2="367" y2="34" stroke="#4393c3" stroke-width="2"/>
	<line x1="490" y1="109" x2="367" y2="34" stroke="#4393c3" stroke-width="2"/>
	<g>
		<path d="M379 9 a14 14 90 0 1 14 14 V34 h-52 V23 a14 14 90 0 1 14 -14" fill="#92c5de" stroke="#92c5de" stroke-width="0"/>
		<path d="M393 34 v11 a14 14 90 0 1 -14 14 H355 a14 14 90 0 1 -14 -14 V34 H52" fill="#d1e5f0" stroke="#d1e5f0" stroke-width="0"/>
		<rect x="341" y="9" width="52" height="50" fill="none" rx="14" stroke="#4393c3" stroke-width="2"/>
		<line x1="341" y1="34" x2="393" y2="34" stroke="#4393c3" stroke-width="1"/>
		<text x="349" y="26.75" fill="#000000" font-family="Verdana" font-size="12">valide</text>
	</g>
	<text x="301" y="94.2" fill="#b2182b" font-family="Verdana" font-size="12">1,1</text>
	<text x="416" y="92.02" fill="#b2182b" font-family="Verdana" font-size="12">0,1</text>
</g>

<!-- Association DEFINI -->
<g>
	<line x1="59" y1="109" x2="162" y2="109" stroke="#4393c3" stroke-width="2"/>
	<line x1="257" y1="109" x2="162" y2="109" stroke="#4393c3" stroke-width="2"/>
	<g>
		<path d="M172 84 a14 14 90 0 1 14 14 V109 h-48 V98 a14 14 90 0 1 14 -14" fill="#92c5de" stroke="#92c5de" stroke-width="0"/>
		<path d="M186 109 v11 a14 14 90 0 1 -14 14 H152 a14 14 90 0 1 -14 -14 V109 H48" fill="#d1e5f0" stroke="#d1e5f0" stroke-width="0"/>
		<rect x="138" y="84" width="48" height="50" fill="none" rx="14" stroke="#4393c3" stroke-width="2"/>
		<line x1="138" y1="109" x2="186" y2="109" stroke="#4393c3" stroke-width="1"/>
		<text x="145" y="101.75" fill="#000000" font-family="Verdana" font-size="12">défini</text>
	</g>
	<text x="90" y="126" fill="#b2182b" font-family="Verdana" font-size="12">0,N</text>
	<text x="192" y="126" fill="#b2182b" font-family="Verdana" font-size="12">1,1</text>
</g>

<!-- Association POSSEDE -->
<g>
	<line x1="257" y1="109" x2="367" y2="109" stroke="#4393c3" stroke-width="2"/>
	<line x1="490" y1="109" x2="367" y2="109" stroke="#4393c3" stroke-width="2"/>
	<g>
		<path d="M385 84 a14 14 90 0 1 14 14 V109 h-64 V98 a14 14 90 0 1 14 -14" fill="#92c5de" stroke="#92c5de" stroke-width="0"/>
		<path d="M399 109 v11 a14 14 90 0 1 -14 14 H349 a14 14 90 0 1 -14 -14 V109 H64" fill="#d1e5f0" stroke="#d1e5f0" stroke-width="0"/>
		<rect x="335" y="84" width="64" height="50" fill="none" rx="14" stroke="#4393c3" stroke-width="2"/>
		<line x1="335" y1="109" x2="399" y2="109" stroke="#4393c3" stroke-width="1"/>
		<text x="342" y="101.75" fill="#000000" font-family="Verdana" font-size="12">possède</text>
	</g>
	<text x="301" y="126" fill="#b2182b" font-family="Verdana" font-size="12">0,N</text>
	<text x="416" y="126" fill="#b2182b" font-family="Verdana" font-size="12">1,1</text>
</g>

<!-- Association COMPOSE -->
<g>
	<line x1="257" y1="109" x2="257" y2="201" stroke="#4393c3" stroke-width="2"/>
	<line x1="257" y1="285" x2="257" y2="201" stroke="#4393c3" stroke-width="2"/>
	<g>
		<path d="M277 176 a14 14 90 0 1 14 14 V201 h-68 V190 a14 14 90 0 1 14 -14" fill="#92c5de" stroke="#92c5de" stroke-width="0"/>
		<path d="M291 201 v11 a14 14 90 0 1 -14 14 H237 a14 14 90 0 1 -14 -14 V201 H68" fill="#d1e5f0" stroke="#d1e5f0" stroke-width="0"/>
		<rect x="223" y="176" width="68" height="50" fill="none" rx="14" stroke="#4393c3" stroke-width="2"/>
		<line x1="223" y1="201" x2="291" y2="201" stroke="#4393c3" stroke-width="1"/>
		<text x="230" y="193.75" fill="#000000" font-family="Verdana" font-size="12">compose</text>
	</g>
	<text x="262" y="168" fill="#b2182b" font-family="Verdana" font-size="12">1,1</text>
	<text x="262" y="243" fill="#b2182b" font-family="Verdana" font-size="12">0,N</text>
</g>

<!-- Association CREE -->
<g>
	<line x1="59" y1="285" x2="162" y2="285" stroke="#4393c3" stroke-width="2"/>
	<line x1="257" y1="285" x2="162" y2="285" stroke="#4393c3" stroke-width="2"/>
	<g>
		<path d="M169 260 a14 14 90 0 1 14 14 V285 h-42 V274 a14 14 90 0 1 14 -14" fill="#92c5de" stroke="#92c5de" stroke-width="0"/>
		<path d="M183 285 v11 a14 14 90 0 1 -14 14 H155 a14 14 90 0 1 -14 -14 V285 H42" fill="#d1e5f0" stroke="#d1e5f0" stroke-width="0"/>
		<rect x="141" y="260" width="42" height="50" fill="none" rx="14" stroke="#4393c3" stroke-width="2"/>
		<line x1="141" y1="285" x2="183" y2="285" stroke="#4393c3" stroke-width="1"/>
		<text x="149" y="277.75" fill="#000000" font-family="Verdana" font-size="12">créé</text>
	</g>
	<text x="114" y="302" fill="#b2182b" font-family="Verdana" font-size="12">0,N</text>
	<text x="192" y="302" fill="#b2182b" font-family="Verdana" font-size="12">1,1</text>
</g>

<!-- Association APPARTIENT -->
<g>
	<line x1="257" y1="285" x2="367" y2="285" stroke="#4393c3" stroke-width="2"/>
	<line x1="490" y1="285" x2="367" y2="285" stroke="#4393c3" stroke-width="2"/>
	<g>
		<path d="M392 260 a14 14 90 0 1 14 14 V285 h-78 V274 a14 14 90 0 1 14 -14" fill="#92c5de" stroke="#92c5de" stroke-width="0"/>
		<path d="M406 285 v11 a14 14 90 0 1 -14 14 H342 a14 14 90 0 1 -14 -14 V285 H78" fill="#d1e5f0" stroke="#d1e5f0" stroke-width="0"/>
		<rect x="328" y="260" width="78" height="50" fill="none" rx="14" stroke="#4393c3" stroke-width="2"/>
		<line x1="328" y1="285" x2="406" y2="285" stroke="#4393c3" stroke-width="1"/>
		<text x="336" y="277.75" fill="#000000" font-family="Verdana" font-size="12">appartient</text>
	</g>
	<text x="301" y="302" fill="#b2182b" font-family="Verdana" font-size="12">0,N</text>
	<text x="411" y="302" fill="#b2182b" font-family="Verdana" font-size="12">0,N</text>
</g>

<!-- Entity NIVEAU -->
<g>
	<g>
		<rect x="33" y="84" width="52" height="25" fill="#f4a582" stroke="none" stroke-width="0" opacity="1"/>
		<rect x="33" y="109" width="52" height="25" fill="#fddbc7" stroke="none" stroke-width="0" opacity="1"/>
		<rect x="33" y="84" width="52" height="50" fill="none" stroke="#d6604d" stroke-width="2" opacity="1"/>
		<line x1="33" y1="109" x2="85" y2="109" stroke="#d6604d" stroke-width="1"/>
	</g>
	<text x="39" y="101.75" fill="#000000" font-family="Verdana" font-size="12">niveau</text>
	<text x="38" y="126.8" fill="#000000" font-family="Verdana" font-size="12">libellé</text>
	<line x1="38" y1="129" x2="74" y2="129" stroke="#000000" stroke-width="1"/>
</g>

<!-- Entity QUESTION -->
<g>
	<g>
		<rect x="218" y="67" width="78" height="25" fill="#f4a582" stroke="none" stroke-width="0" opacity="1"/>
		<rect x="218" y="92" width="78" height="59" fill="#fddbc7" stroke="none" stroke-width="0" opacity="1"/>
		<rect x="218" y="67" width="78" height="84" fill="none" stroke="#d6604d" stroke-width="2" opacity="1"/>
		<line x1="218" y1="92" x2="296" y2="92" stroke="#d6604d" stroke-width="1"/>
	</g>
	<text x="231" y="84.75" fill="#000000" font-family="Verdana" font-size="12">question</text>
	<text x="223" y="109.8" fill="#000000" font-family="Verdana" font-size="12">description</text>
	<line x1="223" y1="112" x2="290" y2="112" stroke="#000000" stroke-width="1"/>
	<text x="223" y="126.8" fill="#000000" font-family="Verdana" font-size="12">anecdote</text>
	<text x="223" y="143.8" fill="#000000" font-family="Verdana" font-size="12">wiki</text>
</g>

<!-- Entity REPONSE -->
<g>
	<g>
		<rect x="442" y="75" width="96" height="25" fill="#f4a582" stroke="none" stroke-width="0" opacity="1"/>
		<rect x="442" y="100" width="96" height="43" fill="#fddbc7" stroke="none" stroke-width="0" opacity="1"/>
		<rect x="442" y="75" width="96" height="68" fill="none" stroke="#d6604d" stroke-width="2" opacity="1"/>
		<line x1="442" y1="100" x2="538" y2="100" stroke="#d6604d" stroke-width="1"/>
	</g>
	<text x="466" y="92.75" fill="#000000" font-family="Verdana" font-size="12">réponse</text>
	<text x="447" y="117.8" fill="#000000" font-family="Verdana" font-size="12">code_réponse</text>
	<line x1="447" y1="120" x2="532" y2="120" stroke="#000000" stroke-width="1"/>
	<text x="447" y="134.8" fill="#000000" font-family="Verdana" font-size="12">description</text>
</g>

<!-- Entity UTILISATEUR -->
<g>
	<g>
		<rect x="9" y="234" width="100" height="25" fill="#f4a582" stroke="none" stroke-width="0" opacity="1"/>
		<rect x="9" y="259" width="100" height="77" fill="#fddbc7" stroke="none" stroke-width="0" opacity="1"/>
		<rect x="9" y="234" width="100" height="102" fill="none" stroke="#d6604d" stroke-width="2" opacity="1"/>
		<line x1="9" y1="259" x2="109" y2="259" stroke="#d6604d" stroke-width="1"/>
	</g>
	<text x="29" y="251.75" fill="#000000" font-family="Verdana" font-size="12">utilisateur</text>
	<text x="14" y="276.8" fill="#000000" font-family="Verdana" font-size="12">email</text>
	<line x1="14" y1="279" x2="48" y2="279" stroke="#000000" stroke-width="1"/>
	<text x="14" y="293.8" fill="#000000" font-family="Verdana" font-size="12">prénom</text>
	<text x="14" y="310.8" fill="#000000" font-family="Verdana" font-size="12">nom</text>
	<text x="14" y="327.8" fill="#000000" font-family="Verdana" font-size="12">mot_de_passe</text>
</g>

<!-- Entity QUIZ -->
<g>
	<g>
		<rect x="218" y="251" width="78" height="25" fill="#f4a582" stroke="none" stroke-width="0" opacity="1"/>
		<rect x="218" y="276" width="78" height="43" fill="#fddbc7" stroke="none" stroke-width="0" opacity="1"/>
		<rect x="218" y="251" width="78" height="68" fill="none" stroke="#d6604d" stroke-width="2" opacity="1"/>
		<line x1="218" y1="276" x2="296" y2="276" stroke="#d6604d" stroke-width="1"/>
	</g>
	<text x="244" y="268.75" fill="#000000" font-family="Verdana" font-size="12">quiz</text>
	<text x="223" y="293.8" fill="#000000" font-family="Verdana" font-size="12">titre</text>
	<line x1="223" y1="296" x2="249" y2="296" stroke="#000000" stroke-width="1"/>
	<text x="223" y="310.8" fill="#000000" font-family="Verdana" font-size="12">description</text>
</g>

<!-- Entity CATEGORIE -->
<g>
	<g>
		<rect x="438" y="251" width="104" height="25" fill="#f4a582" stroke="none" stroke-width="0" opacity="1"/>
		<rect x="438" y="276" width="104" height="43" fill="#fddbc7" stroke="none" stroke-width="0" opacity="1"/>
		<rect x="438" y="251" width="104" height="68" fill="none" stroke="#d6604d" stroke-width="2" opacity="1"/>
		<line x1="438" y1="276" x2="542" y2="276" stroke="#d6604d" stroke-width="1"/>
	</g>
	<text x="462" y="268.75" fill="#000000" font-family="Verdana" font-size="12">catégorie</text>
	<text x="443" y="293.8" fill="#000000" font-family="Verdana" font-size="12">code_catégorie</text>
	<line x1="443" y1="296" x2="536" y2="296" stroke="#000000" stroke-width="1"/>
	<text x="443" y="310.8" fill="#000000" font-family="Verdana" font-size="12">nom</text>
</g>
</svg>